<svg width="31" height="22" viewBox="0 0 31 22" fill="none" xmlns="http://www.w3.org/2000/svg">
    <path d="M19.9303 0.5C13.8193 0.5 8.95837 5.21837 8.95837 11C8.95837 16.8481 13.8888 21.5 19.9303 21.5C25.9718 21.5 30.9022 16.7816 30.9022 11C30.9022 5.21837 25.9718 0.5 19.9303 0.5ZM19.9303 14.8544C17.7081 14.8544 15.8332 13.0601 15.8332 10.9335C15.8332 8.80697 17.7081 7.01267 19.9303 7.01267C22.1525 7.01267 24.0274 8.80697 24.0274 10.9335C23.958 13.1266 22.1525 14.8544 19.9303 14.8544Z" fill="url(#paint0_linear_145_3660)"/>
    <path d="M8.88864 3.49052V18.7753H4.99985L0 3.49052H8.88864Z" fill="url(#paint1_linear_145_3660)"/>
    <defs>
        <linearGradient id="paint0_linear_145_3660" x1="15.4511" y1="0.5" x2="15.4511" y2="21.5" gradientUnits="userSpaceOnUse">
            <stop stop-color="#0160D1"/>
            <stop offset="1" stop-color="#00479C"/>
        </linearGradient>
        <linearGradient id="paint1_linear_145_3660" x1="4.44432" y1="3.49072" x2="4.44432" y2="18.7755" gradientUnits="userSpaceOnUse">
            <stop stop-color="#0160D1"/>
            <stop offset="1" stop-color="#00479C"/>
        </linearGradient>
    </defs>
</svg>
