<svg width="32" height="32" viewBox="0 0 32 32" fill="none" xmlns="http://www.w3.org/2000/svg">
    <g clip-path="url(#clip0_107_148)">
        <path d="M14.0827 5.53073C15.3472 5.26648 16.6528 5.26648 17.9173 5.53073L20.1613 3.2854L22.048 5.17207L20.648 6.57207C22.2964 7.52113 23.6171 8.94925 24.4347 10.6667H28V13.3334H25.24C25.3013 13.7694 25.3333 14.2134 25.3333 14.6667V16.0001H28V18.6667H25.3333V20.0001C25.3333 20.4534 25.3013 20.8974 25.24 21.3334H28V24.0001H24.4347C23.6782 25.5969 22.4839 26.9462 20.9908 27.891C19.4976 28.8359 17.767 29.3375 16 29.3375C14.233 29.3375 12.5024 28.8359 11.0092 27.891C9.51609 26.9462 8.32184 25.5969 7.56533 24.0001H4V21.3334H6.76C6.69734 20.8917 6.66615 20.4462 6.66667 20.0001V18.6667H4V16.0001H6.66667V14.6667C6.66667 14.2134 6.69867 13.7694 6.76 13.3334H4V10.6667H7.56533C8.38263 8.94875 9.70335 7.52014 11.352 6.57073L9.952 5.17073L11.84 3.28673L14.084 5.53207L14.0827 5.53073ZM16 8.00007C14.2319 8.00007 12.5362 8.70245 11.286 9.95269C10.0357 11.2029 9.33333 12.8986 9.33333 14.6667V20.0001C9.33333 21.7682 10.0357 23.4639 11.286 24.7141C12.5362 25.9644 14.2319 26.6667 16 26.6667C17.7681 26.6667 19.4638 25.9644 20.714 24.7141C21.9643 23.4639 22.6667 21.7682 22.6667 20.0001V14.6667C22.6667 12.8986 21.9643 11.2029 20.714 9.95269C19.4638 8.70245 17.7681 8.00007 16 8.00007V8.00007ZM12 18.6667H20V21.3334H12V18.6667ZM12 13.3334H20V16.0001H12V13.3334Z" fill="currentColor"/>
    </g>
    <defs>
        <clipPath id="clip0_107_148">
            <rect width="32" height="32" fill="white"/>
        </clipPath>
    </defs>
</svg>
