<svg width="13" height="14" viewBox="0 0 13 14" fill="none" xmlns="http://www.w3.org/2000/svg">
    <g clip-path="url(#clip0_134_6462)">
        <path d="M6.5 12.4168C3.50838 12.4168 1.08334 9.99179 1.08334 7.00016C1.08334 4.00854 3.50838 1.5835 6.5 1.5835C9.49163 1.5835 11.9167 4.00854 11.9167 7.00016C11.9167 9.99179 9.49163 12.4168 6.5 12.4168ZM6.5 11.3335C7.64927 11.3335 8.75147 10.877 9.56413 10.0643C10.3768 9.25164 10.8333 8.14943 10.8333 7.00016C10.8333 5.85089 10.3768 4.74869 9.56413 3.93603C8.75147 3.12338 7.64927 2.66683 6.5 2.66683C5.35073 2.66683 4.24853 3.12338 3.43587 3.93603C2.62322 4.74869 2.16667 5.85089 2.16667 7.00016C2.16667 8.14943 2.62322 9.25164 3.43587 10.0643C4.24853 10.877 5.35073 11.3335 6.5 11.3335V11.3335ZM7.04167 7.00016H9.20834V8.0835H5.95834V4.29183H7.04167V7.00016Z" fill="currentColor"/>
    </g>
    <defs>
        <clipPath id="clip0_134_6462">
            <rect width="13" height="13" fill="white" transform="translate(0 0.5)"/>
        </clipPath>
    </defs>
</svg>
