<svg width="16" height="16" viewBox="0 0 16 16" fill="none" xmlns="http://www.w3.org/2000/svg">
    <g clip-path="url(#clip0_177_3638)">
        <path d="M7.17198 7.8855L12.4047 2.65283L13.3473 3.5955L12.4047 4.53883L14.054 6.18817L13.1113 7.1315L11.4613 5.4815L10.5187 6.42417L11.9327 7.83817L10.99 8.7815L9.57599 7.36683L8.11465 8.82817C8.56829 9.5175 8.75022 10.3506 8.62526 11.1662C8.50031 11.9819 8.07735 12.7223 7.43816 13.2443C6.79898 13.7662 5.98897 14.0326 5.16477 13.9919C4.34056 13.9513 3.56071 13.6065 2.97599 13.0242C2.39 12.4404 2.042 11.6596 1.99962 10.8335C1.95724 10.0075 2.2235 9.19514 2.74666 8.55444C3.26982 7.91375 4.0125 7.49046 4.83036 7.36683C5.64822 7.2432 6.48283 7.42807 7.17198 7.8855V7.8855ZM6.74732 12.0808C6.94153 11.8971 7.09694 11.6764 7.20437 11.4316C7.3118 11.1868 7.36907 10.9229 7.37278 10.6557C7.3765 10.3884 7.32659 10.123 7.22601 9.87534C7.12543 9.62766 6.97622 9.40265 6.78719 9.21363C6.59816 9.0246 6.37316 8.87538 6.12548 8.7748C5.8778 8.67422 5.61247 8.62432 5.34517 8.62803C5.07787 8.63175 4.81403 8.68902 4.56924 8.79645C4.32445 8.90388 4.10368 9.05929 3.91999 9.2535C3.55567 9.6307 3.35408 10.1359 3.35864 10.6603C3.36319 11.1847 3.57353 11.6863 3.94435 12.0571C4.31516 12.428 4.81679 12.6383 5.34118 12.6428C5.86558 12.6474 6.37078 12.4458 6.74798 12.0815L6.74732 12.0808Z" fill="currentColor"/>
    </g>
    <defs>
        <clipPath id="clip0_177_3638">
            <rect width="16" height="16" fill="white"/>
        </clipPath>
    </defs>
</svg>
