<svg width="24" height="24" viewBox="0 0 24 24" fill="none" xmlns="http://www.w3.org/2000/svg">
    <path d="M7.552 20V16.928H5.272V15.416H7.552V13.736H5.272V12.056H7.552V4.16H13.144C14.216 4.16 15.144 4.36 15.928 4.76C16.728 5.144 17.352 5.696 17.8 6.416C18.248 7.136 18.472 7.992 18.472 8.984C18.472 9.944 18.248 10.784 17.8 11.504C17.352 12.208 16.728 12.76 15.928 13.16C15.144 13.544 14.216 13.736 13.144 13.736H9.352V15.416H13.624V16.928H9.352V20H7.552ZM9.352 12.056H12.856C14.104 12.056 15.016 11.8 15.592 11.288C16.168 10.76 16.456 9.992 16.456 8.984C16.456 7.976 16.168 7.216 15.592 6.704C15.016 6.176 14.104 5.912 12.856 5.912H9.352V12.056Z" fill="currentColor"/>
</svg>
