<svg width="16" height="16" viewBox="0 0 16 16" fill="none" xmlns="http://www.w3.org/2000/svg">
    <g clip-path="url(#clip0_306_3291)">
        <path d="M2.22667 11.3332C1.94485 10.8459 1.72578 10.3249 1.57467 9.78255C1.90354 9.61528 2.17973 9.3603 2.37269 9.04581C2.56564 8.73132 2.66784 8.36959 2.66798 8.00062C2.66812 7.63166 2.56619 7.26985 2.37347 6.95522C2.18075 6.64058 1.90475 6.3854 1.576 6.21788C1.87736 5.12821 2.45115 4.13318 3.24333 3.32655C3.55273 3.5277 3.91175 3.63932 4.28065 3.64907C4.64956 3.65881 5.01397 3.5663 5.33355 3.38177C5.65314 3.19724 5.91544 2.92788 6.09142 2.60351C6.2674 2.27914 6.3502 1.9124 6.33067 1.54388C7.42541 1.26096 8.57415 1.26142 9.66867 1.54522C9.6493 1.91373 9.73227 2.28041 9.90839 2.60469C10.0845 2.92897 10.3469 3.1982 10.6666 3.38259C10.9862 3.56698 11.3506 3.65934 11.7195 3.64945C12.0884 3.63956 12.4474 3.5278 12.7567 3.32655C13.1427 3.71988 13.4853 4.16722 13.7733 4.66655C14.062 5.16588 14.278 5.68655 14.4253 6.21722C14.0965 6.38448 13.8203 6.63946 13.6273 6.95395C13.4344 7.26844 13.3322 7.63018 13.332 7.99914C13.3319 8.3681 13.4338 8.72992 13.6265 9.04455C13.8193 9.35918 14.0953 9.61437 14.424 9.78188C14.1226 10.8716 13.5488 11.8666 12.7567 12.6732C12.4473 12.4721 12.0883 12.3604 11.7193 12.3507C11.3504 12.3409 10.986 12.4335 10.6664 12.618C10.3469 12.8025 10.0846 13.0719 9.90858 13.3963C9.7326 13.7206 9.6498 14.0874 9.66933 14.4559C8.57459 14.7388 7.42585 14.7383 6.33133 14.4545C6.3507 14.086 6.26773 13.7194 6.09161 13.3951C5.9155 13.0708 5.6531 12.8016 5.33345 12.6172C5.0138 12.4328 4.64937 12.3404 4.28048 12.3503C3.9116 12.3602 3.55264 12.472 3.24333 12.6732C2.84933 12.2712 2.50773 11.8209 2.22667 11.3332V11.3332ZM6 11.4639C6.71042 11.8736 7.24456 12.5312 7.5 13.3105C7.83267 13.3419 8.16667 13.3425 8.49933 13.3112C8.75493 12.5318 9.28933 11.8742 10 11.4645C10.7101 11.0537 11.547 10.9195 12.35 11.0879C12.5433 10.8159 12.71 10.5259 12.8487 10.2225C12.3016 9.61151 11.9994 8.82002 12 7.99988C12 7.15988 12.3133 6.37522 12.8487 5.77722C12.709 5.47398 12.5416 5.1843 12.3487 4.91188C11.5462 5.08009 10.7099 4.9462 10 4.53588C9.28958 4.12613 8.75544 3.46854 8.5 2.68922C8.16733 2.65788 7.83333 2.65722 7.50067 2.68855C7.24506 3.46798 6.71067 4.12559 6 4.53522C5.28986 4.94609 4.45298 5.08023 3.65 4.91188C3.45704 5.18407 3.29009 5.47379 3.15133 5.77722C3.69838 6.38826 4.00059 7.17974 4 7.99988C4 8.83988 3.68667 9.62455 3.15133 10.2225C3.29098 10.5258 3.45836 10.8155 3.65133 11.0879C4.45381 10.9197 5.29014 11.0536 6 11.4639ZM8 9.99988C7.46957 9.99988 6.96086 9.78917 6.58579 9.4141C6.21071 9.03902 6 8.53031 6 7.99988C6 7.46945 6.21071 6.96074 6.58579 6.58567C6.96086 6.2106 7.46957 5.99988 8 5.99988C8.53043 5.99988 9.03914 6.2106 9.41421 6.58567C9.78929 6.96074 10 7.46945 10 7.99988C10 8.53031 9.78929 9.03902 9.41421 9.4141C9.03914 9.78917 8.53043 9.99988 8 9.99988ZM8 8.66655C8.17681 8.66655 8.34638 8.59631 8.4714 8.47129C8.59643 8.34626 8.66667 8.17669 8.66667 7.99988C8.66667 7.82307 8.59643 7.6535 8.4714 7.52848C8.34638 7.40345 8.17681 7.33322 8 7.33322C7.82319 7.33322 7.65362 7.40345 7.5286 7.52848C7.40357 7.6535 7.33333 7.82307 7.33333 7.99988C7.33333 8.17669 7.40357 8.34626 7.5286 8.47129C7.65362 8.59631 7.82319 8.66655 8 8.66655V8.66655Z" fill="currentColor"/>
    </g>
    <defs>
        <clipPath id="clip0_306_3291">
            <rect width="16" height="16" fill="white"/>
        </clipPath>
    </defs>
</svg>
